<?xml version="1.0" encoding="UTF-8"?>
<svg version="1.1" xmlns="http://www.w3.org/2000/svg" width="512" height="512">
<defs>
  <clipPath id="rounded">
    <rect width="512" height="512" rx="256" ry="256" />
  </clipPath>
</defs>
<g clip-path="url(#rounded)">
<path d="M0 0 C168.96 0 337.92 0 512 0 C512 168.96 512 337.92 512 512 C343.04 512 174.08 512 0 512 C0 343.04 0 174.08 0 0 Z " fill="#133F69" transform="translate(0,0)"/>
<path d="M0 0 C4.01863807 1.55411861 6.0153425 4.12849981 8.6875 7.4375 C9.12465332 7.97536133 9.56180664 8.51322266 10.01220703 9.06738281 C10.91395139 10.17737244 11.81303899 11.28952562 12.70947266 12.40380859 C13.86966645 13.83879668 15.04891416 15.2583296 16.23046875 16.67578125 C44.70254232 50.85264187 75.29399483 92.28381221 86 136 C86.31453125 137.02480469 86.6290625 138.04960937 86.953125 139.10546875 C92.85999136 159.00086863 87.47763333 179.7131116 78.1875 197.6875 C65.79611204 219.41960426 45.85673833 234.06546575 22 240.8125 C-1.1983709 246.79333 -24.1921289 242.26653096 -44.625 230.25 C-50.68671339 226.39979688 -55.85643803 221.98825015 -61 217 C-61.61230469 216.46117187 -62.22460938 215.92234375 -62.85546875 215.3671875 C-77.89822048 201.66692391 -85.7307897 180.26734327 -87.27734375 160.4453125 C-87.90197945 138.40816516 -79.37338076 117.04331035 -69.04199219 97.93652344 C-67.99612208 95.99279295 -66.98560939 94.03336736 -65.9765625 92.0703125 C-51.31876972 64.13447855 -31.86364279 38.01422218 -11.62207031 13.93066406 C-10.04173194 12.04967131 -8.46872172 10.16282771 -6.8984375 8.2734375 C-4.60330327 5.51198156 -2.30342065 2.75455142 0 0 Z " fill="#FDFEFE" transform="translate(255,129)"/>
<path d="M0 0 C5.28 0 10.56 0 16 0 C16 7.92 16 15.84 16 24 C23.92 24 31.84 24 40 24 C40 29.28 40 34.56 40 40 C32.08 40 24.16 40 16 40 C16 47.92 16 55.84 16 64 C10.72 64 5.44 64 0 64 C0 56.08 0 48.16 0 40 C-7.92 40 -15.84 40 -24 40 C-24 34.72 -24 29.44 -24 24 C-16.08 24 -8.16 24 0 24 C0 16.08 0 8.16 0 0 Z " fill="#2C5374" transform="translate(248,222)"/>
<path d="M0 0 C21.12 0 42.24 0 64 0 C64 5.28 64 10.56 64 16 C42.88 16 21.76 16 0 16 C0 10.72 0 5.44 0 0 Z " fill="#2C5274" transform="translate(224,301)"/>
<path d="M0 0 C0.66 0 1.32 0 2 0 C2.391875 0.9075 2.78375 1.815 3.1875 2.75 C5.64004214 7.14766177 8.22707358 9.40902453 13 11 C13 11.66 13 12.32 13 13 C12.0925 13.391875 11.185 13.78375 10.25 14.1875 C5.85233823 16.64004214 3.59097547 19.22707358 2 24 C1.34 24 0.68 24 0 24 C-0.391875 23.0925 -0.78375 22.185 -1.1875 21.25 C-3.64004214 16.85233823 -6.22707358 14.59097547 -11 13 C-11 12.34 -11 11.68 -11 11 C-10.0925 10.608125 -9.185 10.21625 -8.25 9.8125 C-3.85233823 7.35995786 -1.59097547 4.77292642 0 0 Z " fill="#7F97AE" transform="translate(483,472)"/>
<path d="M0 0 C7.59 0 15.18 0 23 0 C23 4.62 23 9.24 23 14 C15.08 14 7.16 14 -1 14 C-1 13.67 -1 13.34 -1 13 C5.93 13 12.86 13 20 13 C20 9.04 20 5.08 20 1 C13.4 1 6.8 1 0 1 C0 0.67 0 0.34 0 0 Z " fill="#1E4261" transform="translate(264,247)"/>
<path d="M0 0 C0.33 0 0.66 0 1 0 C1.19448477 2.12437212 1.38038289 4.24953191 1.5625 6.375 C1.66691406 7.55835938 1.77132813 8.74171875 1.87890625 9.9609375 C2 13 2 13 1 15 C0.84523558 16.91449317 0.72520046 18.83187696 0.625 20.75 C0.2680493 25.61857355 -0.38203733 28.9023193 -3 33 C-3.66 33 -4.32 33 -5 33 C-4.72285156 31.79085938 -4.44570313 30.58171875 -4.16015625 29.3359375 C-1.96689977 19.51356914 -0.32907056 10.08601274 0 0 Z " fill="#284864" transform="translate(344,280)"/>
<path d="M0 0 C0 3 0 3 -2 6 C-3.98723268 6.70381157 -5.98777953 7.3711811 -8 8 C-8.66 8.66 -9.32 9.32 -10 10 C-13.125 9.625 -13.125 9.625 -16 9 C-13.34697146 6.34697146 -10.20773563 4.99847122 -6.875 3.375 C-6.21628906 3.05015625 -5.55757813 2.7253125 -4.87890625 2.390625 C-3.25438086 1.59013423 -1.62742022 0.79458899 0 0 Z " fill="#2D4E6C" transform="translate(302,358)"/>
<path d="M0 0 C0.66 0.33 1.32 0.66 2 1 C1.55120234 3.62696231 1.09145886 6.25116893 0.625 8.875 C0.49867188 9.62136719 0.37234375 10.36773437 0.2421875 11.13671875 C-0.7734375 16.7734375 -0.7734375 16.7734375 -3 19 C-2.88608368 16.39491364 -2.75934452 13.79154454 -2.625 11.1875 C-2.5940625 10.44951172 -2.563125 9.71152344 -2.53125 8.95117188 C-2.32653852 5.18106885 -2.13566173 3.20349259 0 0 Z " fill="#314F68" transform="translate(170,262)"/>
<path d="M0 0 C0.66 0.33 1.32 0.66 2 1 C0.68 4.63 -0.64 8.26 -2 12 C-2.66 12 -3.32 12 -4 12 C-3.91253716 10.56138706 -3.80434652 9.12402492 -3.6875 7.6875 C-3.62949219 6.88699219 -3.57148438 6.08648437 -3.51171875 5.26171875 C-2.91793306 2.63727666 -2.04219706 1.69179328 0 0 Z " fill="#2E4F6B" transform="translate(175,248)"/>
<path d="M0 0 C0.66 0.33 1.32 0.66 2 1 C-0.475 5.455 -0.475 5.455 -3 10 C-3.66 10 -4.32 10 -5 10 C-4.67 7.36 -4.34 4.72 -4 2 C-3.01 2 -2.02 2 -1 2 C-0.67 1.34 -0.34 0.68 0 0 Z " fill="#2B4D68" transform="translate(192,213)"/>
<path d="M0 0 C0.66 0.33 1.32 0.66 2 1 C1.05016642 2.50539661 0.08988109 4.00420347 -0.875 5.5 C-1.40867188 6.3353125 -1.94234375 7.170625 -2.4921875 8.03125 C-2.98976562 8.6809375 -3.48734375 9.330625 -4 10 C-4.66 10 -5.32 10 -6 10 C-6 9.34 -6 8.68 -6 8 C-5.34 8 -4.68 8 -4 8 C-4.0825 7.236875 -4.165 6.47375 -4.25 5.6875 C-4 3 -4 3 -2 1.1875 C-1.34 0.795625 -0.68 0.40375 0 0 Z " fill="#2B4E69" transform="translate(200,200)"/>
<path d="M0 0 C4.95 0.99 4.95 0.99 10 2 C8 4 8 4 4.875 4.125 C3.92625 4.08375 2.9775 4.0425 2 4 C2 3.34 2 2.68 2 2 C1.34 2 0.68 2 0 2 C0 1.34 0 0.68 0 0 Z " fill="#284B68" transform="translate(230,368)"/>
<path d="M0 0 C3.96 1.98 3.96 1.98 8 4 C8 4.66 8 5.32 8 6 C5.69 5.67 3.38 5.34 1 5 C0.67 3.35 0.34 1.7 0 0 Z " fill="#2D506C" transform="translate(211,359)"/>
<path d="M0 0 C0.66 0.33 1.32 0.66 2 1 C1.19152271 2.16945792 0.37810888 3.33550461 -0.4375 4.5 C-0.88996094 5.1496875 -1.34242188 5.799375 -1.80859375 6.46875 C-2.20175781 6.9740625 -2.59492188 7.479375 -3 8 C-3.33 8 -3.66 8 -4 8 C-4.25 5.6875 -4.25 5.6875 -4 3 C-2 1.1875 -2 1.1875 0 0 Z " fill="#2F506A" transform="translate(227,161)"/>
<path d="M0 0 C0.33 0.66 0.66 1.32 1 2 C-1 4 -1 4 -4.125 4.125 C-5.548125 4.063125 -5.548125 4.063125 -7 4 C-6 2 -6 2 -2.9375 0.875 C-1.4834375 0.441875 -1.4834375 0.441875 0 0 Z " fill="#2F4F6D" transform="translate(283,367)"/>
<path d="M0 0 C0.33 0.66 0.66 1.32 1 2 C-0.32 3.65 -1.64 5.3 -3 7 C-3.99 6.67 -4.98 6.34 -6 6 C-4.02 4.02 -2.04 2.04 0 0 Z " fill="#426078" transform="translate(320,343)"/>
<path d="M0 0 C1 2 1 2 0.375 4 C-1.39265071 6.57112831 -3.07589059 7.07659703 -6 8 C-4.02 5.36 -2.04 2.72 0 0 Z " fill="#32536D" transform="translate(327,335)"/>
<path d="M0 0 C0.99 0.33 1.98 0.66 3 1 C1.02 3.97 1.02 3.97 -1 7 C-1.625 5.1875 -1.625 5.1875 -2 3 C-1.34 2.01 -0.68 1.02 0 0 Z " fill="#2F4F68" transform="translate(206,189)"/>
<path d="M0 0 C0.66 0.33 1.32 0.66 2 1 C0.38405168 3.04119788 -1.2856382 5.04072937 -3 7 C-3.66 7 -4.32 7 -5 7 C-4.67 6.01 -4.34 5.02 -4 4 C-3.34 4 -2.68 4 -2 4 C-1.34 2.68 -0.68 1.36 0 0 Z " fill="#304F69" transform="translate(246,137)"/>
<path d="M0 0 C1.65 0 3.3 0 5 0 C3.02 2.31 1.04 4.62 -1 7 C-2 4 -2 4 -1.0625 1.8125 C-0.5365625 0.9153125 -0.5365625 0.9153125 0 0 Z " fill="#2F4D68" transform="translate(252,128)"/>
</g>
</svg>
